<svg width="80" height="86" viewBox="0 0 80 86" fill="none" xmlns="http://www.w3.org/2000/svg">
<path d="M38.5306 8.07173C38.5306 8.50661 38.5306 8.9415 38.5306 9.38956C38.3264 9.40188 38.1221 9.4142 37.9117 9.42688C35.192 9.62408 32.7597 10.2428 30.4276 11.6958C30.257 11.8011 30.0865 11.9064 29.9108 12.0149C29.3603 12.4083 28.8304 12.8239 28.3024 13.2465C27.9471 13.5078 27.9471 13.5078 27.5918 13.6661C27.1987 13.8859 27.1396 14.0917 26.9549 14.4962C26.7532 14.7541 26.5459 15.0077 26.3347 15.258C25.3717 16.4398 24.6176 17.7283 23.9783 19.1086C23.9222 19.222 23.8661 19.3354 23.8084 19.4522C22.2883 22.8005 22.4759 27.0859 23.7121 30.491C24.1383 31.5177 24.6479 32.4762 25.2521 33.4098C25.4802 33.7924 25.6416 34.1767 25.7973 34.5931C25.9064 34.5931 26.0156 34.5931 26.128 34.5931C26.169 34.7222 26.2099 34.8513 26.2521 34.9844C26.4966 35.4959 26.6316 35.5051 27.1202 35.7462C27.3198 35.996 27.3198 35.996 27.5233 36.2507C28.8876 37.8843 31.0083 38.8268 32.9081 39.6997C33.0349 39.7592 33.1618 39.8186 33.2924 39.8799C33.9931 40.1163 34.7137 40.2361 35.4403 40.3689C35.5911 40.3975 35.7419 40.4261 35.8973 40.4555C36.773 40.6187 37.6454 40.7526 38.5306 40.8528C38.5306 41.0159 38.5306 41.179 38.5306 41.347C38.9671 41.347 39.4037 41.347 39.8535 41.347C39.8535 41.1296 39.8535 40.9121 39.8535 40.6881C40.3872 40.577 40.9213 40.4677 41.4555 40.3587C41.6063 40.3272 41.7571 40.2958 41.9125 40.2634C42.0591 40.2337 42.2056 40.204 42.3566 40.1733C42.4908 40.1457 42.6251 40.1181 42.7634 40.0897C43.1775 40.0267 43.5694 40.0188 43.9877 40.0292C44.1014 40.4925 44.1014 40.4925 44.153 41.0176C43.9082 41.2975 43.9082 41.2975 43.6569 41.5118C43.7691 41.5498 43.8812 41.5878 43.9967 41.6269C45.0868 42.0074 46.109 42.4562 47.1297 42.9943C47.1297 43.103 47.1297 43.2118 47.1297 43.3238C47.2469 43.3359 47.3641 43.348 47.4849 43.3605C48.0881 43.5243 48.4145 43.8145 48.8867 44.2195C49.3413 44.6059 49.7741 44.9701 50.2716 45.3005C50.2716 45.4092 50.2716 45.518 50.2716 45.63C50.368 45.6695 50.4643 45.709 50.5636 45.7497C52.6939 46.9591 54.2329 50.4445 54.9019 52.7133C54.9571 52.8949 55.0123 53.0765 55.0692 53.2635C56.1595 57.2857 55.7156 62.0367 53.7443 65.7167C53.5816 65.9962 53.4164 66.2743 53.2482 66.5506C53.1318 66.7478 53.1318 66.7478 53.0131 66.9489C52.4732 67.8426 52.4732 67.8426 52.0907 68.0332C52.0242 68.1758 52.0242 68.1758 51.9563 68.3214C51.5273 69.1311 50.741 69.6875 50.0468 70.2692C49.7484 70.521 49.7484 70.521 49.3931 70.8953C49.1141 71.163 49.1141 71.163 48.7833 71.163C48.7288 71.3261 48.6742 71.4892 48.618 71.6572C47.4878 72.516 46.1116 73.077 44.8145 73.6339C44.6723 73.697 44.5301 73.7601 44.3837 73.8251C43.4124 74.2196 42.4345 74.4148 41.4038 74.5811C41.2084 74.6127 41.2084 74.6127 41.0091 74.645C40.1197 74.7764 39.2641 74.8049 38.3652 74.787C38.3652 74.3522 38.3652 73.9173 38.3652 73.4692C38.6715 73.4507 38.6715 73.4507 38.984 73.4319C42.0909 73.2063 44.8841 72.3713 47.4429 70.5588C47.7911 70.3394 47.7911 70.3394 48.2272 70.1869C48.7006 69.9725 48.7478 69.8134 48.9487 69.351C49.1994 69.1471 49.1994 69.1471 49.4551 68.9392C51.9786 66.8715 53.6126 63.3005 54.0751 60.1262C54.4654 55.6627 53.6787 51.6693 50.8608 48.1009C50.5806 47.7747 50.3001 47.4688 49.9868 47.1743C49.7755 46.9478 49.7755 46.9478 49.7755 46.6184C49.6777 46.5744 49.5798 46.5304 49.479 46.4852C49.1078 46.2855 48.8676 46.0763 48.5663 45.7844C45.7027 43.2447 41.7078 42.0143 37.9079 42.1031C36.8953 42.1792 35.8977 42.3914 34.9077 42.6095C33.6012 42.8921 33.6012 42.8921 32.9081 42.6649C32.8262 42.2572 32.8262 42.2572 32.7427 41.8412C32.961 41.6781 33.1793 41.515 33.4042 41.347C33.2921 41.309 33.1799 41.271 33.0644 41.2318C31.5329 40.6972 29.8923 40.0588 28.6085 39.0408C28.6085 38.9321 28.6085 38.8234 28.6085 38.7114C28.5165 38.6978 28.4244 38.6842 28.3295 38.6702C27.8252 38.5073 27.5085 38.2423 27.1202 37.8877C27.1202 37.779 27.1202 37.6703 27.1202 37.5583C27.0213 37.5141 26.9224 37.4699 26.8205 37.4244C26.459 37.2289 26.2251 37.0483 25.9627 36.7346C25.9627 36.6259 25.9627 36.5172 25.9627 36.4051C25.799 36.3508 25.6352 36.2964 25.4666 36.2404C25.2373 35.9837 25.2373 35.9837 25.0221 35.6742C24.9499 35.5724 24.8776 35.4707 24.8032 35.3659C24.6397 35.0873 24.6397 35.0873 24.6397 34.7579C24.5306 34.7579 24.4214 34.7579 24.309 34.7579C21.7148 31.0866 21.0278 26.4929 21.5527 22.1087C21.6873 21.3589 21.9035 20.6506 22.1592 19.9322C22.2089 19.7745 22.2586 19.6167 22.3097 19.4541C23.0015 17.3748 24.0114 15.6367 25.4666 14.002C25.5578 13.8875 25.649 13.7731 25.743 13.6551C26.5982 12.5987 27.6842 11.8341 28.7739 11.0369C28.9411 10.9088 28.9411 10.9088 29.1118 10.7782C31.719 8.81643 35.3043 8.00226 38.5306 8.07173Z" fill="#A3297C"/>
<path d="M24.3089 48.1009C24.7843 48.1421 24.7843 48.1421 25.3011 48.2657C25.5285 48.6054 25.5285 48.6054 25.6318 48.9246C25.4844 49.0947 25.4844 49.0947 25.3341 49.2682C24.9509 49.7739 24.7025 50.2619 24.4433 50.8395C24.3591 51.0251 24.2749 51.2107 24.1881 51.4019C23.9719 51.8856 23.9719 51.8856 23.8128 52.3839C23.3762 52.2752 22.9397 52.1664 22.4899 52.0544C22.5929 51.249 22.9386 50.6044 23.3064 49.8924C23.3659 49.7745 23.4255 49.6566 23.4869 49.5352C23.7416 49.0353 23.9959 48.5686 24.3089 48.1009Z" fill="#A3297C"/>
<path d="M49.4447 36.2404C50.0016 36.4907 50.2068 36.6557 50.4369 37.2288C49.5532 38.1678 48.5001 39.201 47.2949 39.6997C46.9435 39.6894 46.9435 39.6894 46.6335 39.535C46.4268 39.1129 46.4268 39.1129 46.3027 38.7114C46.5756 38.6026 46.8484 38.4939 47.1296 38.3819C47.1296 38.2732 47.1296 38.1645 47.1296 38.0524C47.3555 37.9005 47.5823 37.7498 47.813 37.6052C48.3994 37.2032 48.9172 36.7152 49.4447 36.2404Z" fill="#A3297C"/>
<path d="M30.4275 43.3238C30.4821 43.6499 30.5367 43.9761 30.5929 44.3122C30.4712 44.3858 30.3495 44.4595 30.2241 44.5354C29.375 45.0594 28.6106 45.5427 27.947 46.2889C27.8379 46.3976 27.7288 46.5063 27.6163 46.6184C27.4526 46.6184 27.2889 46.6184 27.1202 46.6184C26.7585 46.1242 26.7585 46.1242 26.4587 45.63C29.3333 42.9855 29.3333 42.9855 30.4275 43.3238Z" fill="#A3297C"/>
<path d="M53.2431 16.6608C53.847 16.9153 53.9572 17.5022 54.201 18.0745C54.535 18.955 54.8088 19.8509 55.0673 20.7559C54.5867 20.9629 54.2742 21.0853 53.7443 21.0853C53.6923 20.948 53.6403 20.8106 53.5867 20.669C53.516 20.4836 53.4452 20.2983 53.3723 20.1073C53.2979 19.9123 53.2235 19.7174 53.1468 19.5166C52.9074 18.9187 52.6374 18.3454 52.3394 17.7747C52.256 17.4613 52.256 17.4613 52.3846 17.1016C52.6407 16.7225 52.7824 16.628 53.2431 16.6608Z" fill="#A3297C"/>
<path d="M26.128 67.8684C26.6021 68.0801 26.9509 68.292 27.2856 68.6921C27.2856 68.8008 27.2856 68.9095 27.2856 69.0215C27.3824 69.0655 27.4791 69.1094 27.5789 69.1547C27.953 69.3542 28.2313 69.574 28.5465 69.8555C28.843 70.1192 29.0793 70.3267 29.4354 70.5041C29.3701 70.9754 29.3131 71.1286 28.9315 71.4326C28.8249 71.5067 28.7183 71.5808 28.6085 71.6572C28.2397 71.3722 27.8712 71.0869 27.5033 70.8007C27.226 70.586 26.9464 70.3742 26.6655 70.1643C26.2025 69.7672 25.8468 69.333 25.4666 68.8568C25.657 68.4502 25.8052 68.19 26.128 67.8684Z" fill="#A3297C"/>
<path d="M48.1218 11.2016C48.4732 11.2634 48.4732 11.2634 48.7833 11.3663C48.7833 11.475 48.7833 11.5838 48.7833 11.6958C48.9027 11.7331 49.0221 11.7705 49.145 11.809C49.7132 12.0731 50.0147 12.3871 50.437 12.8489C50.5269 12.9455 50.6169 13.0421 50.7096 13.1417C51.4292 13.9376 51.4292 13.9376 51.4292 14.4962C51.32 14.4962 51.2109 14.4962 51.0984 14.4962C51.0439 14.6592 50.9893 14.8223 50.9331 14.9904C50.3644 14.8978 50.139 14.7385 49.7858 14.2903C49.1423 13.5042 48.5305 12.8439 47.6257 12.3547C47.7498 11.5722 47.7498 11.5722 48.1218 11.2016Z" fill="#A3297C"/>
<path d="M53.2482 30.6396C53.6302 30.694 54.0122 30.7484 54.4057 30.8044C54.3519 31.985 53.8014 32.9078 53.2482 33.9342C53.139 33.9342 53.0299 33.9342 52.9174 33.9342C52.7537 34.3419 52.7537 34.3419 52.5867 34.7579C51.8341 34.679 51.8341 34.679 51.5292 34.3267C51.4291 33.9342 51.4291 33.9342 51.6688 33.4001C51.7895 33.1991 51.913 32.9996 52.0389 32.8017C52.1604 32.6032 52.2816 32.4046 52.4026 32.2058C52.4617 32.1099 52.5208 32.014 52.5818 31.9152C52.8272 31.5013 53.0389 31.0725 53.2482 30.6396Z" fill="#A3297C"/>
<path d="M23.1514 61.7735C23.2292 61.9661 23.307 62.1586 23.3872 62.3571C23.4911 62.6121 23.5951 62.8672 23.6992 63.1222C23.7757 63.3122 23.7757 63.3122 23.8539 63.506C24.0765 64.0498 24.2916 64.5462 24.6054 65.0455C24.6713 65.1617 24.7372 65.2778 24.8051 65.3975C24.6397 65.8917 24.6397 65.8917 24.1436 66.2211C23.82 66.2314 23.82 66.2314 23.4821 66.0564C23.2428 65.6695 23.0549 65.3156 22.8723 64.9033C22.8214 64.7918 22.7704 64.6803 22.7179 64.5654C22.3548 63.7378 22.1752 63.0123 22.1592 62.1029C22.7793 61.7735 22.7793 61.7735 23.1514 61.7735Z" fill="#A3297C"/>
<path d="M54.9019 23.5357C55.398 23.5563 55.398 23.5563 55.5634 23.721C55.5847 24.1589 55.5948 24.5905 55.5944 25.0285C55.5945 25.2184 55.5945 25.2184 55.5947 25.412C55.5859 26.3604 55.4861 27.2513 55.2326 28.1687C54.8506 28.06 54.4686 27.9512 54.0751 27.8392C54.0979 27.1562 54.1225 26.4733 54.1474 25.7904C54.1539 25.5954 54.1604 25.4003 54.1671 25.1994C54.1741 25.0141 54.181 24.8288 54.1881 24.638C54.1942 24.4663 54.2002 24.2946 54.2065 24.1177C54.2569 23.529 54.2966 23.5608 54.9019 23.5357Z" fill="#A3297C"/>
<path d="M31.7505 72.1514C33.1625 72.3696 34.527 72.8697 35.8847 73.3045C35.7755 73.685 35.6664 74.0655 35.5539 74.4576C34.0239 74.2706 32.6842 73.8565 31.2544 73.3045C31.3784 72.522 31.3784 72.522 31.7505 72.1514Z" fill="#A3297C"/>
<path d="M41.5071 8.40119C42.9837 8.57876 44.2731 8.97834 45.6413 9.55429C45.4966 10.5015 45.4966 10.5015 45.3106 10.8721C43.9195 10.4711 42.5483 10.0153 41.1764 9.55429C41.2855 9.17377 41.3947 8.79324 41.5071 8.40119Z" fill="#A3297C"/>
<path d="M21.663 54.8548C22.6139 54.8342 22.6139 54.8342 22.986 55.0196C22.9355 55.7026 22.8834 56.3855 22.8309 57.0684C22.8093 57.3609 22.8093 57.3609 22.7873 57.6594C22.7729 57.8447 22.7586 58.0299 22.7437 58.2208C22.7307 58.3925 22.7177 58.5642 22.7044 58.741C22.6552 59.1378 22.6552 59.1378 22.4899 59.3025C22.0764 59.3231 22.0764 59.3231 21.663 59.3025C21.386 59.0265 21.4762 58.6884 21.4757 58.3103C21.4755 58.1421 21.4753 57.9739 21.4751 57.8006C21.4757 57.6236 21.4763 57.4465 21.477 57.264C21.4763 57.0882 21.4757 56.9123 21.4751 56.7312C21.4753 56.5626 21.4755 56.394 21.4757 56.2203C21.4759 56.0652 21.4761 55.9101 21.4763 55.7503C21.4977 55.349 21.4977 55.349 21.663 54.8548Z" fill="#A3297C"/>
<path d="M27.7816 11.6958C27.8908 11.7501 27.9999 11.8045 28.1123 11.8605C27.2423 12.984 26.2022 13.8929 25.1357 14.8256C25.1357 13.9189 26.0135 13.3049 26.624 12.6841C27.0003 12.3385 27.3833 12.0166 27.7816 11.6958Z" fill="#A3297C"/>
<path d="M29.27 43.3238C29.4337 43.3781 29.5974 43.4325 29.7661 43.4885C29.6444 43.5703 29.5226 43.652 29.3972 43.7362C28.3252 44.4797 27.5454 45.1124 26.9548 46.2889C26.7911 46.0715 26.6274 45.854 26.4587 45.63C28.3668 43.8746 28.3668 43.8746 29.27 43.3238Z" fill="#A3297C"/>
<path d="M53.2895 16.6891C53.4328 16.7452 53.4328 16.7452 53.5789 16.8024C53.5243 16.9655 53.4698 17.1285 53.4136 17.2966C53.4136 17.1878 53.4136 17.0791 53.4136 16.9671C52.9224 17.3748 52.9224 17.3748 52.4213 17.7908C52.3668 17.5733 52.3122 17.3559 52.256 17.1318C52.8259 16.625 52.8259 16.625 53.2895 16.6891Z" fill="#A3297C"/>
<path d="M48.6179 70.0099C48.5042 70.3291 48.5042 70.3291 48.2872 70.6688C47.8531 70.7924 47.8531 70.7924 47.4603 70.8336C48.2458 70.0099 48.2458 70.0099 48.6179 70.0099Z" fill="#A3297C"/>
</svg>
